<svg width="196" height="20" viewBox="0 0 196 20" fill="none" xmlns="http://www.w3.org/2000/svg">
<g clip-path="url(#clip0)">
<path d="M4.66597 7.24482C4.61929 7.1838 4.55761 7.13586 4.4869 7.10562C4.41619 7.07538 4.33885 7.06388 4.26238 7.07222C4.1859 7.08057 4.11289 7.10848 4.0504 7.15325C3.98792 7.19802 3.93808 7.25814 3.90572 7.32778L0.049871 15.022C0.0145032 15.0919 -0.00230211 15.1696 0.00106283 15.2478C0.00442777 15.3261 0.0278504 15.4021 0.0690898 15.4687C0.110329 15.5353 0.168006 15.5902 0.236602 15.6282C0.305198 15.6662 0.382419 15.686 0.460877 15.6857H5.83009C5.91628 15.6883 6.00134 15.6656 6.0748 15.6206C6.14825 15.5755 6.20688 15.51 6.24347 15.4321C7.40046 13.0451 6.69962 9.41607 4.66597 7.24482Z" fill="url(#paint0_linear)"/>
<path d="M7.49549 0.247363C6.53427 1.72273 5.97411 3.42213 5.86998 5.17874C5.76585 6.93535 6.12134 8.68879 6.90155 10.2669L9.48875 15.432C9.52845 15.5074 9.5878 15.5708 9.66054 15.6154C9.73329 15.66 9.81675 15.6843 9.90213 15.6856H15.2713C15.3496 15.6855 15.4265 15.6654 15.4948 15.6272C15.5631 15.5891 15.6204 15.5341 15.6614 15.4676C15.7023 15.401 15.7256 15.3251 15.7288 15.2471C15.7321 15.1691 15.7153 15.0916 15.68 15.0219L8.27949 0.244993C8.24383 0.171376 8.18803 0.109316 8.11854 0.0659688C8.04905 0.022622 7.9687 -0.000245786 7.88674 1.99237e-06C7.80479 0.00024977 7.72458 0.0236033 7.65535 0.0673694C7.58613 0.111136 7.53071 0.173532 7.49549 0.247363V0.247363Z" fill="white"/>
<path d="M117.006 2.78369V15.6856H119.762V5.84621L120.924 8.45836L124.82 15.6856H128.286V2.78369H125.53V11.1108L124.485 8.6954L121.356 2.78369H117.006Z" fill="white"/>
<path d="M99.4777 2.78369H96.4652V15.688H99.4777V2.78369Z" fill="white"/>
<path d="M92.9895 11.8764C92.9895 9.61745 91.7898 8.55789 88.4043 7.83019C86.5346 7.41774 86.0808 7.0053 86.0808 6.40797C86.0808 5.66367 86.7508 5.34841 87.9814 5.34841C89.4758 5.34841 90.9535 5.80115 92.3504 6.4293V3.47108C91.0093 2.86058 89.5479 2.55843 88.0741 2.58693C84.729 2.58693 82.9947 4.03996 82.9947 6.41508C82.9947 8.31137 83.8809 9.83315 87.3471 10.5016C89.414 10.933 89.8464 11.2672 89.8464 11.9546C89.8464 12.642 89.414 13.0545 87.9458 13.0545C86.1866 13.0233 84.4627 12.5574 82.9282 11.6986V14.8014C83.9711 15.3134 85.3491 15.8823 87.9173 15.8823C91.5379 15.8823 92.9753 14.2729 92.9753 11.8764" fill="white"/>
<path d="M80.4527 11.8765C80.4527 9.6175 79.2505 8.55794 75.8651 7.83024C73.9953 7.4178 73.5439 7.00535 73.5439 6.40802C73.5439 5.66372 74.2115 5.34846 75.4446 5.34846C76.9413 5.34846 78.4166 5.8012 79.816 6.42935V3.47113C78.4747 2.86117 77.0134 2.55904 75.5396 2.58698C72.1921 2.58698 70.4602 4.04002 70.4602 6.41513C70.4602 8.31143 71.3464 9.8332 74.8102 10.5016C76.8771 10.9331 77.3095 11.2673 77.3095 11.9547C77.3095 12.6421 76.8771 13.0545 75.4208 13.0545C73.6609 13.0236 71.9361 12.5578 70.4008 11.6987V14.8015C71.4438 15.3135 72.8217 15.8824 75.3899 15.8824C79.0129 15.8824 80.4503 14.2729 80.4503 11.8765" fill="white"/>
<path d="M47.0756 2.78369V15.6856H53.2669L54.2409 12.8981H50.1071V2.78369H47.0756Z" fill="white"/>
<path d="M34.8452 2.78369V5.57125H38.1903V15.6856H41.2217V5.57125H44.8044V2.78369H34.8452Z" fill="white"/>
<path d="M30.4477 2.77893H26.4754L21.9615 15.6809H25.4206L26.0597 13.5096C27.6345 13.9679 29.3077 13.9679 30.8825 13.5096L31.5239 15.6809H34.9688L30.4477 2.77893ZM28.4616 11.1866C27.8987 11.1877 27.3386 11.1079 26.7985 10.9496L28.4616 5.31523L30.1246 10.9496C29.5845 11.1078 29.0244 11.1876 28.4616 11.1866V11.1866Z" fill="white"/>
<path d="M63.9387 2.77893H59.9641L55.4502 15.6809H58.895L59.5341 13.5096C61.1097 13.9678 62.7836 13.9678 64.3593 13.5096L64.9983 15.6809H68.4432L63.9387 2.77893ZM61.9526 11.1819C61.3897 11.1829 60.8297 11.1031 60.2896 10.9449L61.9526 5.31049L63.6156 10.9449C63.0758 11.1047 62.5157 11.1862 61.9526 11.1866V11.1819Z" fill="white"/>
<path d="M110.33 2.77893H106.358L101.844 15.6809H105.289L105.928 13.5096C107.503 13.9679 109.176 13.9679 110.751 13.5096L111.39 15.6809H114.835L110.33 2.77893ZM108.335 11.1866C107.772 11.1873 107.212 11.1075 106.672 10.9496L108.335 5.31523L109.998 10.9496C109.457 11.1075 108.897 11.1873 108.335 11.1866Z" fill="white"/>
<path d="M136.39 1.83081H141.507C146.021 1.83081 148.19 4.63733 148.19 8.79259C148.19 12.9929 145.99 15.6927 141.507 15.6927H136.39V1.83081ZM138.29 3.64414V13.8699H141.526C144.698 13.8699 146.278 12.2107 146.278 8.84711C146.278 5.48355 144.776 3.63229 141.412 3.63229L138.29 3.64414Z" fill="white"/>
<path d="M155.465 15.8941C151.509 15.8941 149.763 13.6162 149.763 10.3877C149.763 7.20193 151.54 4.92163 154.752 4.92163C158.009 4.92163 159.321 7.18059 159.321 10.3877V11.2102H151.599C151.854 13.0046 153.025 14.1637 155.512 14.1637C156.609 14.1641 157.697 13.9716 158.727 13.5948V15.2541C157.874 15.7258 156.543 15.8941 155.465 15.8941ZM151.595 9.65289H157.494C157.389 7.69259 156.501 6.57141 154.681 6.57141C152.761 6.57141 151.785 7.81348 151.595 9.65289Z" fill="white"/>
<path d="M164.811 15.8943C163.539 15.9215 162.279 15.6511 161.131 15.1049V13.1849C162.285 13.8249 163.577 14.1793 164.897 14.2184C166.291 14.2184 167.011 13.6495 167.011 12.827C167.011 12.0045 166.398 11.5612 164.398 11.0753C162.05 10.504 161.055 9.59856 161.055 7.86819C161.055 6.03115 162.48 4.91234 164.885 4.91234C166.064 4.89607 167.23 5.15672 168.289 5.67323V7.55056C167.02 6.91767 165.982 6.58108 164.863 6.58108C163.531 6.58108 162.811 7.05515 162.811 7.86819C162.811 8.60538 163.319 9.06997 165.265 9.52745C167.612 10.0963 168.795 10.9497 168.795 12.7986C168.786 14.5669 167.645 15.8943 164.811 15.8943Z" fill="white"/>
<path d="M171.81 1.08181C171.98 1.06984 172.15 1.09438 172.309 1.15376C172.469 1.21314 172.613 1.30598 172.734 1.42599C172.854 1.546 172.947 1.69039 173.007 1.84939C173.066 2.00839 173.091 2.17828 173.079 2.34758C173.079 2.68329 172.945 3.00524 172.707 3.24262C172.469 3.48 172.146 3.61336 171.81 3.61336C171.474 3.61336 171.151 3.48 170.913 3.24262C170.675 3.00524 170.541 2.68329 170.541 2.34758C170.529 2.17828 170.554 2.00839 170.613 1.84939C170.673 1.69039 170.766 1.546 170.886 1.42599C171.007 1.30598 171.151 1.21314 171.311 1.15376C171.47 1.09438 171.64 1.06984 171.81 1.08181V1.08181ZM170.879 5.13277H172.699V15.6833H170.879V5.13277Z" fill="white"/>
<path d="M182.575 13.7845C181.897 15.1783 180.629 15.8942 179.011 15.8942C176.219 15.8942 174.825 13.5238 174.825 10.4091C174.813 7.43431 176.281 4.91223 179.211 4.91223C180.755 4.91223 181.94 5.60912 182.575 6.98156V5.13268H184.359V14.735C184.359 17.8355 182.898 19.9262 179.113 19.9262C177.828 19.9656 176.547 19.772 175.331 19.3549V17.5842C176.516 17.9904 177.758 18.204 179.011 18.2171C181.655 18.2171 182.575 16.7949 182.575 14.8393V13.7845ZM179.486 14.2064C181.116 14.2064 182.575 13.173 182.575 10.831V9.98719C182.575 7.64527 181.242 6.61179 179.698 6.61179C177.647 6.61179 176.59 7.96053 176.59 10.4044C176.59 12.9407 177.604 14.2064 179.486 14.2064V14.2064Z" fill="white"/>
<path d="M196.088 15.6832H194.268V9.31164C194.268 7.41534 193.508 6.56912 191.774 6.56912C190.082 6.56912 188.923 7.68793 188.923 9.8189V15.6832H187.103V5.13268H188.923V6.86305C189.245 6.26326 189.727 5.7638 190.315 5.41962C190.904 5.07545 191.576 4.89988 192.258 4.91223C194.691 4.91223 196.088 6.57149 196.088 9.49179V15.6832Z" fill="white"/>
</g>
<defs>
<linearGradient id="paint0_linear" x1="6.78039" y1="8.43237" x2="2.72219" y2="15.4732" gradientUnits="userSpaceOnUse">
<stop stop-color="white" stop-opacity="0.4"/>
<stop offset="0.92" stop-color="white"/>
</linearGradient>
<clipPath id="clip0">
<rect width="196" height="20" fill="white"/>
</clipPath>
</defs>
</svg>
